PathFileType	4	(X/Y/Z)	C:\Users\chris\Documents\GitHub\baseballds\vids\pitch5_Sports2D\pitch5_Sports2D_px_person03.trc
DataRate	CameraRate	NumFrames	NumMarkers	Units	OrigDataRate	OrigDataStartFrame	OrigNumFrames
30	30	7	22	m	30	74	149
Frame#	Time	Hip			RHip			RKnee			RAnkle			RBigToe			RSmallToe			RHeel			LHip			LKnee			LAnkle			LBigToe			LSmallToe			LHeel			Neck			Head			Nose			RShoulder			RElbow			RWrist			LShoulder			LElbow			LWrist		
		X1	Y1	Z1	X2	Y2	Z2	X3	Y3	Z3	X4	Y4	Z4	X5	Y5	Z5	X6	Y6	Z6	X7	Y7	Z7	X8	Y8	Z8	X9	Y9	Z9	X10	Y10	Z10	X11	Y11	Z11	X12	Y12	Z12	X13	Y13	Z13	X14	Y14	Z14	X15	Y15	Z15	X16	Y16	Z16	X17	Y17	Z17	X18	Y18	Z18	X19	Y19	Z19	X20	Y20	Z20	X21	Y21	Z21	X22	Y22	Z22
74	2.466666666666667	1495.6963176932345	471.35624738596385	0.0	1494.4490700011163	471.9120777260475	0.0	1494.8916559131394	485.7261499281888	0.0	1496.8057720648685	499.48456442558347	0.0	1489.9587085767798	502.3499007347566	0.0	1490.174760414172	501.4301039064837	0.0	1498.460695479795	501.22839424633173	0.0	1496.6734847001258	471.92920220468466	0.0	1496.5200949323892	486.2722740402913	0.0	1497.7937761383012	500.0358839128139	0.0	1492.1126971768933	502.93248351988643	0.0	1493.0053447092969	502.7019259941239	0.0	1500.0605945246193	501.43129348166485	0.0	1496.3014603640327	450.99658605299385	0.0	1494.4736402863778	441.52944652845406	0.0	1492.3112922131859	447.54499689949483	0.0	1495.9490996080403	453.9009835626724	0.0	1495.8018656217423	462.56491681460426	0.0	1493.6058237057118	472.9803861931267	0.0	1497.4703122078624	453.75273264870674	0.0	1497.9954009956064	463.2368718111443	0.0	1495.163999995823	473.77016190478724	0.0
75	2.5	1495.787560756331	471.9094599936393	0.0	1494.5151425288766	472.3908207316506	0.0	1495.1124106095986	486.1247835892309	0.0	1497.0009897326763	499.76536955064773	0.0	1490.1202381579692	502.61105048501315	0.0	1490.3342536884757	501.6063624817928	0.0	1498.7410911801435	501.6261497252732	0.0	1496.7630182283965	472.42645712279864	0.0	1496.725449778622	486.6250684042841	0.0	1498.0300522358473	500.37129430510095	0.0	1492.4456455511909	503.2218524818284	0.0	1493.1351229650345	502.9215545988088	0.0	1500.2549156723776	501.81413616663724	0.0	1496.2201069523671	452.1517211809965	0.0	1494.1462633793908	442.35760280254453	0.0	1492.2926535075824	448.53918564995513	0.0	1495.829892154956	454.9907412251971	0.0	1495.8852454481616	463.27520498392136	0.0	1494.0109790049355	473.33029106514886	0.0	1497.4769690207968	454.8176581875914	0.0	1498.2437037481895	463.79324554792265	0.0	1495.3426529406647	473.98206214132347	0.0
76	2.533333333333333	1495.942520989727	472.5572414449806	0.0	1494.8357787760235	472.9325636784703	0.0	1495.5663298703055	486.46311965934274	0.0	1497.3400035804418	500.01175685960965	0.0	1490.4422356897799	502.85398938941853	0.0	1490.4310460404502	501.9024811824206	0.0	1499.0917615483188	502.0355268305726	0.0	1496.837108538643	472.9850955914705	0.0	1496.7591627568731	486.8308031066932	0.0	1498.1240877000162	500.624782624672	0.0	1492.4168359979972	503.3832583389207	0.0	1493.1228882344583	502.9033307190929	0.0	1500.3341910797706	502.0654350676419	0.0	1496.1697515105625	453.21480121880984	0.0	1493.9257818128467	443.18978600762193	0.0	1492.3011873390888	449.42126010088276	0.0	1495.9540496318314	456.0321584988278	0.0	1496.2274038409842	464.08231548914483	0.0	1494.7515733461032	473.8459479217049	0.0	1497.3453813289523	455.6883539975802	0.0	1498.549968713106	464.35706895653476	0.0	1495.5260246291461	474.30090439766826	0.0
77	2.5666666666666664	1496.2142004789887	472.9927173714003	0.0	1495.2554308126983	473.3308831095851	0.0	1496.230305698548	486.60230192716597	0.0	1497.872789305304	500.227251406601	0.0	1491.0688627178292	503.1338366820524	0.0	1490.4637799891289	502.2366567635394	0.0	1499.488086523195	502.37305615748147	0.0	1497.0934873696729	473.3786257634139	0.0	1496.6804522978782	486.82754831179545	0.0	1498.08488251381	500.74417075727774	0.0	1491.9957057250167	503.3383931328482	0.0	1493.0810856956596	502.7083011172393	0.0	1500.3496122683873	502.0780509600117	0.0	1496.2342044325185	453.6358265887674	0.0	1493.9627077280556	443.65636533382764	0.0	1492.3962248451253	449.8279623935882	0.0	1496.2924646860142	456.4083384213434	0.0	1496.4048558050345	464.47289342675447	0.0	1494.9943187707286	474.0049432661084	0.0	1497.357783464896	455.7863491077608	0.0	1498.7782048910753	464.61925047208365	0.0	1495.5742909683347	474.60964637760117	0.0
78	2.6	1496.547014978676	473.1749718820161	0.0	1495.5512641611217	473.5258307405602	0.0	1496.9010835285007	486.61893139722224	0.0	1498.4119702731075	500.4653578736495	0.0	1491.8456460494035	503.4637529204245	0.0	1490.4314649797898	502.57006171105513	0.0	1499.8175609592681	502.71875996803044	0.0	1497.4966654289815	473.59145851825554	0.0	1496.5423366356238	486.735284674282	0.0	1497.993737708086	500.7808951565198	0.0	1491.4516398415553	503.213984530232	0.0	1493.0767038248273	502.53401959269934	0.0	1500.4192592532795	501.98120121795404	0.0	1496.3328672752762	453.42916486272344	0.0	1494.242797699166	443.6840072319608	0.0	1492.5298143367863	449.7824965727649	0.0	1496.55327127323	456.11655194178684	0.0	1496.1309529033115	464.388959168965	0.0	1494.3629776736484	473.71373079023203	0.0	1497.577151577535	455.18505078523174	0.0	1498.866046134824	464.58351565099	0.0	1495.5512859876126	474.8879942597422	0.0
79	2.6333333333333333	1496.7971750949469	473.2335219371755	0.0	1495.6434005477006	473.5988204905011	0.0	1497.3862212425204	486.6217938983224	0.0	1498.762407250145	500.6686861334201	0.0	1492.437899425047	503.7397456083585	0.0	1490.4020616001294	502.8305213433653	0.0	1499.9798465611018	503.01975159946454	0.0	1497.8400293129944	473.72317113205713	0.0	1496.399371582132	486.66216708439663	0.0	1497.8860705831826	500.7748898117498	0.0	1491.0241879744253	503.1359730910364	0.0	1493.0882713955193	502.4814575863163	0.0	1500.5120606710925	501.8964640790432	0.0	1496.3600082740213	453.0623974314991	0.0	1494.5417625604082	443.56764533705405	0.0	1492.6203055518806	449.62711047456867	0.0	1496.5888342219987	455.6670991934233	0.0	1495.6031466002025	464.17359048173915	0.0	1493.3361151695085	473.2987438709447	0.0	1497.833730933261	454.48683190988436	0.0	1498.8773598207379	464.47720600631493	0.0	1495.6131042831298	475.127199559128	0.0
80	2.6666666666666665	1496.8888177246727	473.24783923442465	0.0	1495.6136135715165	473.6167604874598	0.0	1497.6116428833827	486.6242670409076	0.0	1498.8989467413949	500.75514428655856	0.0	1492.687441039743	503.86756772657924	0.0	1490.4193298257967	502.9499915437082	0.0	1500.0045853523288	503.1498145428933	0.0	1497.9884391542628	473.7934827502737	0.0	1496.3118677402053	486.62409834216203	0.0	1497.7952794641192	500.74799443667416	0.0	1490.8059665961064	503.11118065095184	0.0	1493.0934039035963	502.49616142721516	0.0	1500.5450826353226	501.84301440024706	0.0	1496.3306428501503	452.8719538314203	0.0	1494.6830666009548	443.52361733768424	0.0	1492.6516588336917	449.5697776073762	0.0	1496.5233596494788	455.4343828362326	0.0	1495.2287658353941	464.06216390730816	0.0	1492.6572561491757	473.0536054508482	0.0	1497.9703506450576	454.13680841508256	0.0	1498.8755980516507	464.43120203051836	0.0	1495.7229480634778	475.2612787577425	0.0
